<?xml version="1.0" encoding="UTF-8"?>
<!DOCTYPE svg PUBLIC "-//W3C//DTD SVG 1.1//EN" "http://www.w3.org/Graphics/SVG/1.1/DTD/svg11.dtd">
<svg version="1.1" xmlns="http://www.w3.org/2000/svg" xmlns:xlink="http://www.w3.org/1999/xlink" x="0px" y="0px" width="128" height="128" viewBox="0, 0, 128, 128">
  <g id="Background">
    <rect x="0" y="0" width="128" height="128" fill="#000000" fill-opacity="0"/>
  </g>
  <g id="Background">
    <path d="M18.093,6 L109.907,6 C116.561,6 122,11.439 122,18.093 L122,109.907 C122,116.561 116.561,122 109.907,122 L18.093,122 C11.439,122 6,116.561 6,109.907 L6,18.093 C6,11.439 11.439,6 18.093,6" fill="#727272"/>
    <path d="M59.78,19.345 L65.212,19.345 L68.513,97.63 C81.693,98.787 91.996,103.746 93.988,109.984 L31.32,109.984 C33.312,103.746 43.613,98.787 56.793,97.63 z" fill="#EBEDED"/>
    <path d="M95.151,33.183 L94.653,36.284 L30.726,25.967 L31.224,22.867 z" fill="#EBEDED"/>
    <path d="M54.615,35.644 L54.615,35.644 C56.98,38.01 56.98,41.873 54.615,44.24 L43.764,55.091 L39.856,41.81 L46.02,35.644 C48.387,33.278 52.25,33.278 54.615,35.644 z M44.613,57.976 L54.61,67.973 C56.98,70.34 56.98,74.203 54.61,76.568 L54.61,76.568 C53.51,77.674 52.081,78.268 50.633,78.341 C50.839,77.537 50.971,76.715 51.008,75.869 L49.88,75.869 z M45.318,75.869 L34.151,64.704 L22.984,75.869 L19.263,75.869 L24.876,56.789 L25.556,56.109 L25.187,55.738 L29.09,42.453 L34.151,47.514 L37.193,44.472 L46.431,75.869 z M14.363,77.148 C14.13,76.974 13.906,76.783 13.691,76.568 L13.691,76.568 C11.321,74.203 11.321,70.34 13.691,67.973 L19.994,61.67 L15.815,75.869 L14.234,75.869 C14.254,76.299 14.294,76.728 14.363,77.148 z M22.524,53.077 L13.687,44.24 C11.321,41.873 11.321,38.01 13.687,35.644 L13.687,35.644 C16.052,33.278 19.917,33.278 22.282,35.644 L26.429,39.791 z" fill="#EBECEC"/>
    <path d="M92.457,48.267 C93.704,48.267 94.924,48.367 96.116,48.564 L99.91,61.451 C97.878,59.793 95.285,58.803 92.457,58.803 C90.593,58.803 88.835,59.233 87.269,60 L90.704,48.335 C91.284,48.29 91.867,48.267 92.457,48.267 z M99.846,49.518 C108.55,52.569 114.798,60.858 114.798,70.609 C114.798,75.784 113.041,80.546 110.091,84.332 z M75.734,85.42 C72.239,81.477 70.116,76.29 70.116,70.609 C70.116,60.119 77.34,51.327 87.086,48.92 L82.629,64.069 C81.377,65.941 80.651,68.189 80.651,70.609 L80.656,70.773 L76.344,85.42 z M103.683,74.271 C102.143,78.993 97.7,82.413 92.457,82.413 C88.173,82.413 84.419,80.13 82.351,76.72 L79.794,85.42 L106.962,85.42 z" fill="#EBECEC"/>
    <path d="M79.794,85.42 L106.962,85.42 L93.375,39.247 z M111.537,85.42 C111.196,93.266 103.094,99.544 93.151,99.544 C83.209,99.544 75.107,93.266 74.765,85.42 L76.344,85.42 L91.653,33.392 L91.598,33.2 L95.156,33.2 L95.101,33.392 L110.41,85.42 z" fill="#EBEDED"/>
    <path d="M46.431,75.869 L32.844,29.698 L19.263,75.869 z M34.626,23.651 L34.571,23.843 L49.88,75.869 L51.008,75.869 C50.665,83.715 42.564,89.995 32.62,89.995 C22.678,89.995 14.578,83.715 14.234,75.869 L15.815,75.869 L31.124,23.843 L31.069,23.651 z" fill="#EBEDED"/>
    <path d="M92.457,48.268 L93,48.276 L93,58.817 L92.457,58.803 C85.935,58.803 80.651,64.087 80.651,70.609 C80.651,77.131 85.935,82.413 92.457,82.413 L93,82.401 L93,85.373 L75.692,85.373 C72.226,81.437 70.116,76.267 70.116,70.609 C70.116,58.269 80.118,48.268 92.457,48.268" fill="#EBECEC"/>
    <path d="M33.964,64.891 L23.099,75.756 L13.007,75.756 C11.349,73.39 11.576,70.084 13.691,67.973 L25.556,56.109 L13.687,44.24 C11.321,41.873 11.321,38.01 13.687,35.644 L13.687,35.644 C16.052,33.278 19.917,33.278 22.282,35.644 L33.964,47.327 z" fill="#EBECEC"/>
  </g>
  <defs/>
</svg>
